<svg id="visual" viewBox="0 0 960 540" width="960" height="540" xmlns="http://www.w3.org/2000/svg" xmlns:xlink="http://www.w3.org/1999/xlink" version="1.1"><rect x="0" y="0" width="960" height="540" fill="#001220"></rect><defs><linearGradient id="grad1_0" x1="43.8%" y1="0%" x2="100%" y2="100%"><stop offset="14.444444444444446%" stop-color="#001220" stop-opacity="1"></stop><stop offset="85.55555555555554%" stop-color="#001220" stop-opacity="1"></stop></linearGradient></defs><defs><linearGradient id="grad2_0" x1="0%" y1="0%" x2="56.3%" y2="100%"><stop offset="14.444444444444446%" stop-color="#001220" stop-opacity="1"></stop><stop offset="85.55555555555554%" stop-color="#001220" stop-opacity="1"></stop></linearGradient></defs><g transform="translate(960, 0)"><path d="M0 486C-51.5 453.1 -103 420.3 -166.8 402.8C-230.7 385.3 -307 383.3 -343.7 343.7C-380.3 304.1 -377.4 226.9 -394.5 163.4C-411.6 99.9 -448.8 49.9 -486 0L0 0Z" fill="#FBAE3C"></path></g><g transform="translate(0, 540)"><path d="M0 -486C55 -445.1 110.1 -404.2 153.1 -369.6C196.1 -334.9 227 -306.4 280.7 -280.7C334.5 -255.1 411 -232.3 449 -186C487 -139.7 486.5 -69.8 486 0L0 0Z" fill="#FBAE3C"></path></g></svg>