<?xml version="1.0" standalone="no"?>
<!DOCTYPE svg PUBLIC "-//W3C//DTD SVG 20010904//EN"
 "http://www.w3.org/TR/2001/REC-SVG-20010904/DTD/svg10.dtd">
<svg version="1.0" xmlns="http://www.w3.org/2000/svg"
 width="192.000000pt" height="192.000000pt" viewBox="0 0 192.000000 192.000000"
 preserveAspectRatio="xMidYMid meet">

<g transform="translate(0.000000,192.000000) scale(0.100000,-0.100000)"
fill="#000000" stroke="none">
<path d="M115 1901 c-48 -22 -79 -54 -100 -103 -13 -33 -15 -138 -15 -840 0
-759 1 -805 19 -843 22 -48 54 -79 103 -100 33 -13 138 -15 840 -15 759 0 805
1 843 19 48 22 79 54 100 103 13 33 15 138 15 838 0 700 -2 805 -15 838 -21
49 -52 81 -100 103 -38 18 -83 19 -845 19 -762 0 -807 -1 -845 -19z m480 -281
c17 -14 18 -32 12 -285 -16 -656 -30 -1031 -39 -1042 -17 -21 -182 -17 -199 3
-10 13 -15 85 -21 303 -4 157 -12 444 -18 638 -12 372 -10 387 32 396 52 11
215 2 233 -13z m806 -3 c93 -30 137 -66 175 -137 17 -32 19 -57 16 -265 -1
-126 -6 -345 -10 -485 -10 -289 -14 -306 -93 -373 -74 -64 -105 -70 -375 -75
-192 -3 -242 -1 -251 10 -12 15 -34 656 -37 1068 l-1 254 25 14 c37 19 486 11
551 -11z"/>
<path d="M1106 1458 c-4 -39 -27 -882 -26 -1001 l0 -49 106 4 c103 3 107 4
131 32 l25 29 -7 271 c-11 437 -22 700 -30 718 -10 24 -58 38 -131 38 l-63 0
-5 -42z"/>
</g>
</svg>
